<?xml version="1.0" standalone="no"?>
<!DOCTYPE svg PUBLIC "-//W3C//DTD SVG 20010904//EN"
 "http://www.w3.org/TR/2001/REC-SVG-20010904/DTD/svg10.dtd">
<svg version="1.0" xmlns="http://www.w3.org/2000/svg"
 width="859.000000pt" height="859.000000pt" viewBox="0 0 859.000000 859.000000"
 preserveAspectRatio="xMidYMid meet">

<g transform="translate(0.000000,859.000000) scale(0.100000,-0.100000)"
fill="#000000" stroke="none">
<path d="M6365 1368 c-77 -38 -141 -71 -142 -72 -1 0 -20 -132 -42 -291 -23
-160 -44 -302 -47 -317 -5 -25 -17 -31 -157 -77 l-152 -51 -516 0 -516 0 -257
-133 -257 -132 788 -3 789 -2 170 54 169 54 30 -20 c44 -29 130 -67 178 -79
68 -17 370 -23 471 -10 199 27 354 135 440 307 136 272 20 610 -255 742 -109
53 -166 62 -377 62 -169 0 -174 1 -169 20 3 11 2 20 -1 19 -4 0 -70 -32 -147
-71z m315 -341 l0 -102 -125 -63 c-146 -72 -135 -84 -105 113 11 72 20 133 20
137 0 7 55 13 158 16 l52 2 0 -103z m348 -1 c103 -112 90 -298 -29 -399 -65
-56 -110 -67 -283 -67 l-151 1 170 87 c221 113 215 105 215 299 0 164 0 164
78 79z"/>
</g>
</svg>
